<?xml version="1.0" encoding="UTF-8"?>
<svg xmlns="http://www.w3.org/2000/svg" width="16px" height="16px"
     viewBox="0 0 16 16" version="1.1">
  <g id="surface1">
    <path style=" stroke:none;fill-rule:evenodd;fill:rgb(80.784314%,81.568627%,83.921569%);fill-opacity:1;"
          d="M 11 3.800781 L 7 3.800781 C 5.34375 3.800781 4 5.144531 4 6.800781 L 4 8.800781 C 4 10.457031 5.34375 11.800781 7 11.800781 L 11 11.800781 Z M 12 4.800781 L 12 3.800781 C 12 3.246094 11.554688 2.800781 11 2.800781 L 7 2.800781 C 5.136719 2.800781 3.570312 4.074219 3.125 5.800781 L 1 5.800781 C 0.449219 5.800781 0 6.246094 0 6.800781 L 0 8.800781 C 0 9.351562 0.449219 9.800781 1 9.800781 L 3.125 9.800781 C 3.570312 11.523438 5.136719 12.800781 7 12.800781 L 11 12.800781 C 11.554688 12.800781 12 12.351562 12 11.800781 L 12 10.800781 L 15.5 10.800781 C 15.777344 10.800781 16 10.578125 16 10.300781 C 16 10.023438 15.777344 9.800781 15.5 9.800781 L 12 9.800781 L 12 5.800781 L 15.5 5.800781 C 15.777344 5.800781 16 5.578125 16 5.300781 C 16 5.023438 15.777344 4.800781 15.5 4.800781 Z M 3 6.800781 L 3 8.800781 L 1 8.800781 L 1 6.800781 Z M 3 6.800781 "/>
  </g>
</svg>
