<?xml version="1.0" encoding="utf-8"?>
<svg width="13px" height="13px" viewBox="0 0 13 13" fill="none" version="1.1" id="svg4" xmlns="http://www.w3.org/2000/svg">
  <path fill-rule="evenodd" clip-rule="evenodd" d="M 8.938 2.8 L 5.688 2.8 C 4.341 2.8 3.25 3.874 3.25 5.2 L 3.25 6.8 C 3.25 8.126 4.341 9.2 5.688 9.2 L 8.938 9.2 L 8.938 8.4 L 8.938 7.6 L 8.938 4.4 L 8.938 3.6 L 8.938 2.8 Z M 9.75 3.6 L 9.75 2.8 C 9.75 2.358 9.386 2 8.938 2 L 5.688 2 C 4.173 2 2.901 3.02 2.54 4.4 L 0.813 4.4 C 0.364 4.4 0 4.758 0 5.2 L 0 6.8 C 0 7.242 0.364 7.6 0.813 7.6 L 2.54 7.6 C 2.901 8.98 4.173 10 5.688 10 L 8.938 10 C 9.386 10 9.75 9.642 9.75 9.2 L 9.75 8.4 L 12.594 8.4 C 12.818 8.4 13 8.221 13 8 C 13 7.779 12.818 7.6 12.594 7.6 L 9.75 7.6 L 9.75 4.4 L 12.594 4.4 C 12.818 4.4 13 4.221 13 4 C 13 3.779 12.818 3.6 12.594 3.6 L 9.75 3.6 Z M 2.438 5.2 L 2.438 6.8 L 0.813 6.8 L 0.813 5.2 L 2.438 5.2 Z" fill="#6C707E" id="path2"/>
</svg>